<svg width="364" height="364" viewBox="0 0 364 364" fill="none" xmlns="http://www.w3.org/2000/svg">
<path d="M119.03 12.109C119.03 8.03613 121.736 3.6522 125.352 1.87057C130.459 -0.647228 136.42 0.420922 140.127 4.51735C140.945 5.42167 145.906 17.9088 151.149 32.2672C156.393 46.6256 166.622 74.643 173.88 94.5283C194.357 150.63 194.958 152.187 197.932 156.897C199.471 159.334 202.54 162.812 204.752 164.623C209.222 168.286 203.414 166.043 297.593 200.476C334.289 213.894 358.877 223.332 360.084 224.467C364.178 228.312 364.849 235.514 361.579 240.505C359.82 243.189 355.567 245.248 351.783 245.248C349.794 245.248 215.882 197.149 211.894 195.002C211.377 194.724 236.693 220.322 268.152 251.889C299.61 283.455 325.783 310.138 326.312 311.184C326.84 312.232 327.273 314.82 327.273 316.936C327.273 322.292 324.409 326.353 319.534 327.905C311.574 330.441 314.508 332.951 249.073 267.621C216.367 234.967 189.606 208.444 189.606 208.681C189.606 208.917 202.153 240.467 217.488 278.789C235.637 324.144 245.37 349.54 245.37 351.54C245.37 358.652 239.428 364.168 232.531 363.458C228.089 363.001 224.934 361.08 223.239 357.802C222.548 356.466 209.183 323.489 193.538 284.52C177.894 245.55 164.195 212.243 163.096 210.503C160.767 206.813 155.043 201.45 151.539 199.674C150.191 198.991 116.939 185.598 77.6425 169.911C21.7688 147.607 5.68256 140.849 3.84583 138.907C-3.14471 131.518 2.10857 118.922 12.1801 118.922C14.8036 118.922 33.6769 126.1 84.5877 146.462C122.46 161.608 154.035 174.206 154.754 174.456C155.473 174.706 129.536 148.298 97.1181 115.771C64.6992 83.2435 37.5038 55.2924 36.6839 53.6571C34.0089 48.3236 36.3397 40.8904 41.5667 38.0807C42.8345 37.3995 45.662 37.0796 48.729 37.2696L53.7965 37.5832L111.792 95.4595C143.69 127.291 169.581 152.943 169.328 152.464C169.075 151.985 157.654 120.927 143.949 83.4457C128.253 40.522 119.03 14.118 119.03 12.109Z" fill="url(#paint0_linear_916_1891)"/>
<path d="M209.841 73.4031C209.575 7.16061 209.347 10.0286 215.135 6.50106C220.618 3.15735 228.705 4.96771 231.903 10.2525C233.537 12.9532 233.626 15.4633 234.043 70.9803L234.479 128.891L236.657 129.992C238.346 130.846 251.543 131.096 295.336 131.106C346.668 131.118 352.064 131.253 354.315 132.583C358.134 134.838 359.838 138.748 359.326 144.078C358.816 149.384 356.416 152.463 351.722 153.835C349.668 154.436 328.769 154.651 289.807 154.475L230.994 154.206L226.126 151.924C219.939 149.022 215.266 144.35 212.365 138.164L210.082 133.297L209.841 73.4031Z" fill="url(#paint1_linear_916_1891)"/>
<path d="M283.35 63.8783C295.288 51.8904 306.231 41.5489 307.669 40.8964C310.846 39.4545 312.049 39.3953 315.874 40.4922C319.901 41.6474 322.757 44.5269 323.832 48.5153C325.669 55.3351 324.829 56.5009 300.788 80.5114L278.622 102.65L273.977 102.982C268.443 103.378 265.809 102.186 262.963 98C261.259 95.4936 260.964 94.1536 261.272 90.3185L261.645 85.6742L283.35 63.8783Z" fill="url(#paint2_linear_916_1891)"/>
<path d="M4.9185 221.424C4.88278 216.44 7.21522 212.565 11.3322 210.773C15.6216 208.907 127.075 208.996 134.279 210.871C142.183 212.93 148.155 218.052 152.015 226.081L154.318 230.873L154.565 290.756C154.783 343.967 154.657 350.937 153.433 353.304C149.358 361.182 137.077 361.48 132.436 353.813C130.881 351.247 130.769 347.955 130.357 293.19L129.921 235.279L127.743 234.178C126.055 233.324 112.82 233.073 68.9294 233.058C14.4254 233.04 12.1984 232.976 9.73865 231.355C6.24034 229.049 4.9551 226.401 4.9185 221.424Z" fill="url(#paint3_linear_916_1891)"/>
<path d="M63.0481 284.169C74.9084 272.267 85.3972 262.194 86.3557 261.784C91.7691 259.472 99.732 262.115 102.232 267.054C103.566 269.69 103.659 274.785 102.434 278.079C101.932 279.428 91.9608 290.015 80.2756 301.605C56.9776 324.715 55.7003 325.608 48.661 323.712C42.506 322.055 38.8081 315.134 40.6492 308.715C41.2513 306.617 47.4743 299.798 63.0481 284.169Z" fill="url(#paint4_linear_916_1891)"/>
<defs>
<linearGradient id="paint0_linear_916_1891" x1="39.892" y1="39.106" x2="431.544" y2="437.29" gradientUnits="userSpaceOnUse">
<stop stop-color="#2B348B"/>
<stop offset="1" stop-color="#CB0969"/>
</linearGradient>
<linearGradient id="paint1_linear_916_1891" x1="39.892" y1="39.106" x2="431.544" y2="437.29" gradientUnits="userSpaceOnUse">
<stop stop-color="#2B348B"/>
<stop offset="1" stop-color="#CB0969"/>
</linearGradient>
<linearGradient id="paint2_linear_916_1891" x1="39.892" y1="39.106" x2="431.544" y2="437.29" gradientUnits="userSpaceOnUse">
<stop stop-color="#2B348B"/>
<stop offset="1" stop-color="#CB0969"/>
</linearGradient>
<linearGradient id="paint3_linear_916_1891" x1="39.892" y1="39.106" x2="431.544" y2="437.29" gradientUnits="userSpaceOnUse">
<stop stop-color="#2B348B"/>
<stop offset="1" stop-color="#CB0969"/>
</linearGradient>
<linearGradient id="paint4_linear_916_1891" x1="39.892" y1="39.106" x2="431.544" y2="437.29" gradientUnits="userSpaceOnUse">
<stop stop-color="#2B348B"/>
<stop offset="1" stop-color="#CB0969"/>
</linearGradient>
</defs>
</svg>
